<?xml version="1.0" encoding="utf-8"?>
<!-- Generator: Adobe Illustrator 23.0.6, SVG Export Plug-In . SVG Version: 6.00 Build 0)  -->
<svg version="1.1" id="Layer_1" xmlns="http://www.w3.org/2000/svg" xmlns:xlink="http://www.w3.org/1999/xlink" x="0px" y="0px"
	 viewBox="0 0 16383 16383" style="enable-background:new 0 0 16383 16383;" xml:space="preserve">
<style type="text/css">
	.st0{fill:#4C8C18;}
	.st1{fill:#5DAB1D;}
</style>
<path class="st0" d="M8786.38,8747.48c0,0,924.49-1654.66,1201.34-2058.57c-507.99-358-1127.51-568.36-1796.21-568.36
	c-1724.13,0-3121.81,1397.68-3121.81,3121.81c0,1724.12,1397.68,3121.8,3121.81,3121.8c1724.12,0,3121.8-1397.68,3121.8-3121.8
	c0-428.73-86.48-837.24-242.86-1209.13C10822.53,8121.84,8786.38,8747.48,8786.38,8747.48z"/>
<polygon class="st1" points="6587.86,8982.76 7574.24,8766.82 7436.63,7766.5 8220.46,8403.05 8916.74,7671.77 8909.13,8528.82 
	8786.38,8747.48 8980.19,8687.84 9913.64,8769.91 9118.63,9392.44 9676.64,10233.99 8694.25,10000.57 8384.21,10961.53 
	7954.19,10047.93 7009.57,10404.68 7455.74,9498.86 "/>
</svg>
