<?xml version="1.0" encoding="utf-8"?>
<!-- Generator: Adobe Illustrator 22.1.0, SVG Export Plug-In . SVG Version: 6.00 Build 0)  -->
<svg version="1.1" id="Layer_1" xmlns="http://www.w3.org/2000/svg" xmlns:xlink="http://www.w3.org/1999/xlink" x="0px" y="0px"
	 viewBox="0 0 720 720" style="enable-background:new 0 0 720 720;" xml:space="preserve">
<style type="text/css">
	.st0{fill:#9B6326;}
	.st1{fill:#7C4A13;}
	.st2{fill:#723C07;}
	.st3{fill:#87500F;}
	.st4{opacity:0.4;}
	.st5{fill:#D8C386;}
</style>
<g>
	<polygon points="62.7,459.6 44.7,557.2 73.3,592.6 76,614.9 103,623.9 149,606.9 217,617.9 281,604.9 334.5,610.9 386,606.9 
		432.7,617.6 488.5,607.4 559,623.9 621,595.9 608,558.9 621,501 	"/>
	<polygon points="44,356.5 62.7,459.6 621,501 603,446.9 631.3,369.8 	"/>
	<polygon points="48,227.7 70.5,292 44,356.5 631.3,369.8 608,324.1 632.2,275.8 616,189.9 	"/>
	<polygon points="54,130.2 69.3,167.9 48,227.7 616,189.9 621,138.9 567,111.9 500,126.9 454,120.9 403,134.9 349,124.9 
		299.2,131.2 239,122.9 181.9,136.2 119,126.9 	"/>
</g>
<polygon class="st0" points="84.7,443.7 66.7,541.3 95.3,576.7 98,599 125,608 171,591 239,602 303,589 356.5,595 408,591 
	454.7,601.7 510.5,591.6 581,608 643,580 630,543 643,485.1 "/>
<polygon class="st1" points="66,340.6 84.7,443.7 643,485.1 625,431 653.3,353.9 "/>
<polygon class="st2" points="70,211.8 92.5,276.2 66,340.6 653.3,353.9 630,308.2 654.2,259.9 638,174 "/>
<polygon class="st3" points="76,114.3 91.3,152 70,211.8 638,174 643,123 589,96 522,111 476,105 425,119 371,109 321.2,115.3 
	261,107 203.9,120.3 141,111 "/>
<polygon class="st4" points="132.9,186.1 544.2,185.7 537,216 551,247 534,283 551,360 538.6,412.9 553.2,473.2 538,521 
	544.2,561.7 132.9,561.6 127,523 145.1,469.1 121.8,412.9 141,340.6 126,268 144,218 "/>
<polygon class="st5" points="153.9,175.1 565.1,174.7 558,205 572,236 555,272 572,349 559.5,401.9 574.1,462.2 559,510 
	565.1,550.7 153.9,550.6 148,512 166.1,458.1 142.8,401.9 162,329.6 147,257 165,207 "/>
<path d="M76,114.3"/>
</svg>
