<?xml version="1.0" encoding="utf-8"?>
<!-- Generator: Adobe Illustrator 23.0.6, SVG Export Plug-In . SVG Version: 6.00 Build 0)  -->
<svg version="1.1" id="Layer_1" xmlns="http://www.w3.org/2000/svg" xmlns:xlink="http://www.w3.org/1999/xlink" x="0px" y="0px"
	 viewBox="0 0 16383 16383" style="enable-background:new 0 0 16383 16383;" xml:space="preserve">
<style type="text/css">
	.st0{fill:#D8057E;}
	.st1{fill:#ED0394;}
	.st2{fill:#FF0088;}
	.st3{fill:#FFFFFF;}
	.st4{fill:none;}
</style>
<path class="st0" d="M6139.37,13729.24c-3.21,126.93,102.42,130.06,105.63,3.13c29.85,22.64,42.95,51.64,37.28,87.78
	c-40.66,70.86-133.75,71.38-184.02,0C6092.15,13787.4,6104.23,13756.89,6139.37,13729.24z"/>
<path class="st1" d="M6082.12,13709.01c4.1,164.97,225.41,160.81,221.31-4.16c49.24,97.47,25,193.04-112.49,193.04
	C6053.44,13897.89,6023.02,13795.5,6082.12,13709.01z"/>
<path class="st2" d="M6039.41,13666.39c-65.4,47.27-143.26,169.32-28.03,269.96h351.91c111.25-100.31,65.49-204.94-35.81-269.96
	C6355.51,13927.81,6016.35,13888.55,6039.41,13666.39z"/>
<ellipse class="st3" cx="6190.16" cy="13828.9" rx="39.91" ry="18.06"/>
<path class="st4" d="M5477.32,14084.9h173.97v-148.56c-60.26,0-67.06-107.44-86.99-107.44c-35.47,0-26.73,96.01-26.73,96.01
	c-25.27-9.72-32.07-131.21-45.68-131.21C5384.61,13843.52,5396.39,14031.58,5477.32,14084.9z"/>
</svg>
